<svg width="70" height="83" viewBox="0 0 70 83" fill="none" xmlns="http://www.w3.org/2000/svg">
<path d="M42.7559 36.1738L42.8691 36.5049L43.2188 36.5117L66.8545 37L48.0098 51.4912L47.7373 51.7012L47.8359 52.0312L54.6807 74.9785L35.2881 61.291L35 61.0879L34.7119 61.291L15.3184 74.9785L22.1641 52.0312L22.2627 51.7012L21.9902 51.4912L3.14453 37L26.7812 36.5117L27.1309 36.5049L27.2441 36.1738L35 13.541L42.7559 36.1738Z" stroke="white"/>
<path d="M38 3C38 4.65685 36.6569 6 35 6C33.3431 6 32 4.65685 32 3C32 1.34315 33.3431 0 35 0C36.6569 0 38 1.34315 38 3Z" fill="white"/>
</svg>
