<svg width="155" height="37" viewBox="0 0 155 37" fill="none" xmlns="http://www.w3.org/2000/svg">
<path d="M13.872 36.912C11.6 36.912 9.52001 36.496 7.63201 35.664C5.74401 34.8 4.14401 33.632 2.83201 32.16C1.52001 30.688 0.576006 29.04 6.13928e-06 27.216L4.08001 25.536C4.94401 27.84 6.22401 29.616 7.92001 30.864C9.64801 32.08 11.664 32.688 13.968 32.688C15.376 32.688 16.608 32.464 17.664 32.016C18.72 31.568 19.536 30.944 20.112 30.144C20.72 29.312 21.024 28.352 21.024 27.264C21.024 25.76 20.592 24.576 19.728 23.712C18.896 22.816 17.664 22.144 16.032 21.696L9.45601 19.68C6.86401 18.88 4.88001 17.616 3.50401 15.888C2.12801 14.16 1.44001 12.176 1.44001 9.936C1.44001 7.984 1.90401 6.272 2.83201 4.8C3.79201 3.296 5.10401 2.128 6.76801 1.296C8.46401 0.431997 10.384 -2.86102e-06 12.528 -2.86102e-06C14.672 -2.86102e-06 16.608 0.383997 18.336 1.152C20.096 1.92 21.584 2.96 22.8 4.272C24.016 5.552 24.912 7.024 25.488 8.688L21.456 10.368C20.688 8.352 19.536 6.832 18 5.808C16.464 4.752 14.656 4.224 12.576 4.224C11.296 4.224 10.16 4.448 9.16801 4.896C8.20801 5.312 7.45601 5.936 6.91201 6.768C6.40001 7.568 6.14401 8.528 6.14401 9.648C6.14401 10.96 6.56001 12.128 7.39201 13.152C8.22401 14.176 9.48801 14.96 11.184 15.504L17.184 17.28C20 18.144 22.128 19.376 23.568 20.976C25.008 22.576 25.728 24.56 25.728 26.928C25.728 28.88 25.216 30.608 24.192 32.112C23.2 33.616 21.808 34.8 20.016 35.664C18.256 36.496 16.208 36.912 13.872 36.912ZM43.9913 36.912C41.4953 36.912 39.2713 36.32 37.3193 35.136C35.3673 33.952 33.8313 32.336 32.7113 30.288C31.5913 28.208 31.0313 25.888 31.0313 23.328C31.0313 20.736 31.5753 18.432 32.6633 16.416C33.7833 14.4 35.2873 12.816 37.1753 11.664C39.0953 10.48 41.2393 9.888 43.6073 9.888C45.5273 9.888 47.2233 10.24 48.6953 10.944C50.1993 11.616 51.4633 12.544 52.4873 13.728C53.5433 14.88 54.3433 16.208 54.8873 17.712C55.4633 19.184 55.7513 20.72 55.7513 22.32C55.7513 22.672 55.7193 23.072 55.6553 23.52C55.6233 23.936 55.5753 24.336 55.5113 24.72H34.2953V20.88H52.9193L50.8073 22.608C51.0953 20.944 50.9353 19.456 50.3273 18.144C49.7193 16.832 48.8233 15.792 47.6393 15.024C46.4553 14.256 45.1113 13.872 43.6073 13.872C42.1033 13.872 40.7273 14.256 39.4793 15.024C38.2313 15.792 37.2553 16.896 36.5513 18.336C35.8793 19.744 35.6073 21.424 35.7353 23.376C35.6073 25.264 35.8953 26.928 36.5993 28.368C37.3353 29.776 38.3593 30.88 39.6713 31.68C41.0153 32.448 42.4713 32.832 44.0393 32.832C45.7673 32.832 47.2233 32.432 48.4073 31.632C49.5913 30.832 50.5513 29.808 51.2873 28.56L55.0313 30.48C54.5193 31.664 53.7193 32.752 52.6313 33.744C51.5753 34.704 50.3113 35.472 48.8393 36.048C47.3993 36.624 45.7833 36.912 43.9913 36.912ZM70.8356 36.912C68.2436 36.912 65.9876 36.272 64.0676 34.992C62.1476 33.712 60.7876 31.984 59.9876 29.808L63.5396 28.08C64.2756 29.616 65.2836 30.832 66.5636 31.728C67.8436 32.624 69.2676 33.072 70.8356 33.072C72.2436 33.072 73.4116 32.736 74.3396 32.064C75.2676 31.392 75.7316 30.512 75.7316 29.424C75.7316 28.656 75.5076 28.048 75.0596 27.6C74.6436 27.12 74.1316 26.752 73.5236 26.496C72.9156 26.208 72.3556 26 71.8436 25.872L67.9556 24.768C65.6196 24.096 63.9076 23.136 62.8196 21.888C61.7636 20.64 61.2356 19.184 61.2356 17.52C61.2356 15.984 61.6196 14.656 62.3876 13.536C63.1876 12.384 64.2596 11.488 65.6036 10.848C66.9796 10.208 68.5156 9.888 70.2116 9.888C72.4836 9.888 74.5156 10.464 76.3076 11.616C78.1316 12.768 79.4276 14.384 80.1956 16.464L76.5476 18.144C75.9716 16.8 75.1076 15.744 73.9556 14.976C72.8036 14.176 71.5076 13.776 70.0676 13.776C68.7556 13.776 67.7156 14.112 66.9476 14.784C66.1796 15.424 65.7956 16.24 65.7956 17.232C65.7956 17.968 65.9876 18.576 66.3716 19.056C66.7556 19.504 67.2196 19.856 67.7636 20.112C68.3076 20.336 68.8356 20.528 69.3476 20.688L73.5716 21.936C75.6836 22.544 77.3156 23.488 78.4676 24.768C79.6516 26.048 80.2436 27.584 80.2436 29.376C80.2436 30.816 79.8436 32.112 79.0436 33.264C78.2436 34.416 77.1396 35.312 75.7316 35.952C74.3236 36.592 72.6916 36.912 70.8356 36.912ZM86.0873 36.336V-2.86102e-06H90.5513V15.504L89.7353 15.072C90.3753 13.44 91.3993 12.176 92.8073 11.28C94.2473 10.352 95.9273 9.888 97.8473 9.888C99.7033 9.888 101.351 10.304 102.791 11.136C104.263 11.968 105.415 13.12 106.247 14.592C107.111 16.064 107.543 17.728 107.543 19.584V36.336H103.031V21.024C103.031 19.584 102.759 18.368 102.215 17.376C101.703 16.384 100.983 15.616 100.055 15.072C99.1273 14.496 98.0553 14.208 96.8393 14.208C95.6553 14.208 94.5833 14.496 93.6233 15.072C92.6633 15.616 91.9113 16.4 91.3673 17.424C90.8233 18.416 90.5513 19.616 90.5513 21.024V36.336H86.0873ZM121.515 36.912C119.819 36.912 118.315 36.608 117.003 36C115.723 35.36 114.715 34.496 113.979 33.408C113.243 32.288 112.875 31.008 112.875 29.568C112.875 28.192 113.163 26.96 113.739 25.872C114.347 24.752 115.275 23.808 116.523 23.04C117.803 22.272 119.403 21.728 121.323 21.408L130.923 19.824V23.568L122.331 25.008C120.667 25.296 119.451 25.824 118.683 26.592C117.947 27.36 117.579 28.304 117.579 29.424C117.579 30.48 117.995 31.36 118.827 32.064C119.691 32.768 120.763 33.12 122.043 33.12C123.675 33.12 125.083 32.784 126.267 32.112C127.483 31.408 128.427 30.464 129.099 29.28C129.803 28.096 130.155 26.784 130.155 25.344V18.768C130.155 17.36 129.627 16.224 128.571 15.36C127.547 14.464 126.187 14.016 124.491 14.016C123.019 14.016 121.707 14.4 120.555 15.168C119.435 15.904 118.603 16.896 118.059 18.144L114.171 16.128C114.651 14.944 115.419 13.888 116.475 12.96C117.531 12 118.763 11.248 120.171 10.704C121.579 10.16 123.051 9.888 124.587 9.888C126.571 9.888 128.315 10.272 129.819 11.04C131.323 11.776 132.491 12.816 133.323 14.16C134.187 15.472 134.619 17.008 134.619 18.768V36.336H130.251V31.44L131.067 31.728C130.523 32.752 129.787 33.648 128.859 34.416C127.931 35.184 126.843 35.792 125.595 36.24C124.347 36.688 122.987 36.912 121.515 36.912ZM151.584 36.624C149.056 36.624 147.104 35.904 145.728 34.464C144.384 33.024 143.712 30.992 143.712 28.368V14.736H139.008V10.464H139.968C141.12 10.464 142.032 10.112 142.704 9.408C143.376 8.704 143.712 7.776 143.712 6.624V4.512H148.176V10.464H153.984V14.736H148.176V28.224C148.176 29.088 148.304 29.84 148.56 30.48C148.848 31.12 149.312 31.632 149.952 32.016C150.592 32.368 151.44 32.544 152.496 32.544C152.72 32.544 152.992 32.528 153.312 32.496C153.664 32.464 153.984 32.432 154.272 32.4V36.336C153.856 36.432 153.392 36.496 152.88 36.528C152.368 36.592 151.936 36.624 151.584 36.624Z" fill="white"/>
</svg>
