<svg width="311" height="16" viewBox="0 0 311 16" fill="none" xmlns="http://www.w3.org/2000/svg">
<path d="M-3.57628e-06 15.14V0.239998H5.26C6.24666 0.239998 7.11333 0.426665 7.86 0.799999C8.60666 1.17333 9.18666 1.70667 9.6 2.4C10.0267 3.09333 10.24 3.90667 10.24 4.84C10.24 5.77333 10.0267 6.58667 9.6 7.28C9.18666 7.96 8.60666 8.49333 7.86 8.88C7.12666 9.25333 6.26 9.44 5.26 9.44H1.96V15.14H-3.57628e-06ZM1.96 7.64H5.32C5.92 7.64 6.44 7.52667 6.88 7.3C7.32 7.07333 7.66 6.74667 7.9 6.32C8.14 5.89333 8.26 5.4 8.26 4.84C8.26 4.26667 8.14 3.77333 7.9 3.36C7.66 2.93333 7.32 2.60667 6.88 2.38C6.44 2.15333 5.92 2.04 5.32 2.04H1.96V7.64ZM14.8906 15.14V0.239998H20.1506C21.1373 0.239998 22.004 0.426665 22.7506 0.799999C23.4973 1.17333 24.0773 1.70667 24.4906 2.4C24.9173 3.09333 25.1306 3.90667 25.1306 4.84C25.1306 5.89333 24.864 6.78667 24.3306 7.52C23.7973 8.25333 23.0773 8.78 22.1706 9.1L25.6306 15.14H23.3506L19.7106 8.68L21.0106 9.44H16.8506V15.14H14.8906ZM16.8506 7.64H20.2106C20.7973 7.64 21.3106 7.52667 21.7506 7.3C22.1906 7.07333 22.5306 6.74667 22.7706 6.32C23.024 5.89333 23.1506 5.4 23.1506 4.84C23.1506 4.26667 23.024 3.77333 22.7706 3.36C22.5306 2.93333 22.1906 2.60667 21.7506 2.38C21.3106 2.15333 20.7973 2.04 20.2106 2.04H16.8506V7.64ZM36.9794 15.38C35.926 15.38 34.9394 15.1933 34.0194 14.82C33.0994 14.4333 32.2927 13.8933 31.5994 13.2C30.9194 12.5067 30.386 11.6933 29.9994 10.76C29.6127 9.81333 29.4194 8.78667 29.4194 7.68C29.4194 6.56 29.6127 5.53333 29.9994 4.6C30.386 3.66667 30.9194 2.85333 31.5994 2.16C32.2927 1.46667 33.0927 0.933332 33.9994 0.559999C34.9194 0.186665 35.9127 -1.19209e-06 36.9794 -1.19209e-06C38.046 -1.19209e-06 39.0327 0.193332 39.9394 0.579998C40.8594 0.953332 41.6594 1.48667 42.3394 2.18C43.0327 2.86 43.5727 3.66667 43.9594 4.6C44.3594 5.53333 44.5594 6.56 44.5594 7.68C44.5594 8.78667 44.3594 9.81333 43.9594 10.76C43.5727 11.6933 43.0327 12.5067 42.3394 13.2C41.6594 13.8933 40.8594 14.4333 39.9394 14.82C39.0327 15.1933 38.046 15.38 36.9794 15.38ZM36.9794 13.56C37.806 13.56 38.5594 13.4133 39.2394 13.12C39.9194 12.8133 40.506 12.3933 40.9994 11.86C41.506 11.3133 41.8927 10.6867 42.1594 9.98C42.4394 9.26 42.5794 8.49333 42.5794 7.68C42.5794 6.86667 42.4394 6.10667 42.1594 5.4C41.8927 4.69333 41.506 4.07333 40.9994 3.54C40.506 2.99333 39.9194 2.57333 39.2394 2.28C38.5594 1.97333 37.806 1.82 36.9794 1.82C36.166 1.82 35.4194 1.97333 34.7394 2.28C34.0594 2.57333 33.466 2.99333 32.9594 3.54C32.466 4.07333 32.0794 4.69333 31.7994 5.4C31.5194 6.10667 31.3794 6.86667 31.3794 7.68C31.3794 8.49333 31.5194 9.26 31.7994 9.98C32.0794 10.6867 32.466 11.3133 32.9594 11.86C33.466 12.3933 34.0594 12.8133 34.7394 13.12C35.4194 13.4133 36.166 13.56 36.9794 13.56ZM49.418 15.14V0.239998H54.678C55.6646 0.239998 56.5313 0.426665 57.278 0.799999C58.0246 1.17333 58.6046 1.70667 59.018 2.4C59.4446 3.09333 59.658 3.90667 59.658 4.84C59.658 5.77333 59.4446 6.58667 59.018 7.28C58.6046 7.96 58.0246 8.49333 57.278 8.88C56.5446 9.25333 55.678 9.44 54.678 9.44H51.378V15.14H49.418ZM51.378 7.64H54.738C55.338 7.64 55.858 7.52667 56.298 7.3C56.738 7.07333 57.078 6.74667 57.318 6.32C57.558 5.89333 57.678 5.4 57.678 4.84C57.678 4.26667 57.558 3.77333 57.318 3.36C57.078 2.93333 56.738 2.60667 56.298 2.38C55.858 2.15333 55.338 2.04 54.738 2.04H51.378V7.64ZM71.4286 15.38C70.3753 15.38 69.3886 15.1933 68.4686 14.82C67.5486 14.4333 66.7419 13.8933 66.0486 13.2C65.3686 12.5067 64.8353 11.6933 64.4486 10.76C64.0619 9.81333 63.8686 8.78667 63.8686 7.68C63.8686 6.56 64.0619 5.53333 64.4486 4.6C64.8353 3.66667 65.3686 2.85333 66.0486 2.16C66.7419 1.46667 67.5419 0.933332 68.4486 0.559999C69.3686 0.186665 70.3619 -1.19209e-06 71.4286 -1.19209e-06C72.4953 -1.19209e-06 73.4819 0.193332 74.3886 0.579998C75.3086 0.953332 76.1086 1.48667 76.7886 2.18C77.4819 2.86 78.0219 3.66667 78.4086 4.6C78.8086 5.53333 79.0086 6.56 79.0086 7.68C79.0086 8.78667 78.8086 9.81333 78.4086 10.76C78.0219 11.6933 77.4819 12.5067 76.7886 13.2C76.1086 13.8933 75.3086 14.4333 74.3886 14.82C73.4819 15.1933 72.4953 15.38 71.4286 15.38ZM71.4286 13.56C72.2553 13.56 73.0086 13.4133 73.6886 13.12C74.3686 12.8133 74.9553 12.3933 75.4486 11.86C75.9553 11.3133 76.3419 10.6867 76.6086 9.98C76.8886 9.26 77.0286 8.49333 77.0286 7.68C77.0286 6.86667 76.8886 6.10667 76.6086 5.4C76.3419 4.69333 75.9553 4.07333 75.4486 3.54C74.9553 2.99333 74.3686 2.57333 73.6886 2.28C73.0086 1.97333 72.2553 1.82 71.4286 1.82C70.6153 1.82 69.8686 1.97333 69.1886 2.28C68.5086 2.57333 67.9153 2.99333 67.4086 3.54C66.9153 4.07333 66.5286 4.69333 66.2486 5.4C65.9686 6.10667 65.8286 6.86667 65.8286 7.68C65.8286 8.49333 65.9686 9.26 66.2486 9.98C66.5286 10.6867 66.9153 11.3133 67.4086 11.86C67.9153 12.3933 68.5086 12.8133 69.1886 13.12C69.8686 13.4133 70.6153 13.56 71.4286 13.56ZM88.9872 15.38C88.0405 15.38 87.1739 15.2067 86.3872 14.86C85.6005 14.5 84.9339 14.0133 84.3872 13.4C83.8405 12.7867 83.4472 12.1 83.2072 11.34L84.9072 10.64C85.2672 11.6 85.8005 12.34 86.5072 12.86C87.2272 13.3667 88.0672 13.62 89.0272 13.62C89.6139 13.62 90.1272 13.5267 90.5672 13.34C91.0072 13.1533 91.3472 12.8933 91.5872 12.56C91.8405 12.2133 91.9672 11.8133 91.9672 11.36C91.9672 10.7333 91.7872 10.24 91.4272 9.88C91.0805 9.50667 90.5672 9.22667 89.8872 9.04L87.1472 8.2C86.0672 7.86667 85.2405 7.34 84.6672 6.62C84.0939 5.9 83.8072 5.07333 83.8072 4.14C83.8072 3.32667 84.0005 2.61333 84.3872 2C84.7872 1.37333 85.3339 0.886665 86.0272 0.539999C86.7339 0.179999 87.5339 -1.19209e-06 88.4272 -1.19209e-06C89.3205 -1.19209e-06 90.1272 0.159999 90.8472 0.479999C91.5805 0.799998 92.2005 1.23333 92.7072 1.78C93.2139 2.31333 93.5872 2.92667 93.8272 3.62L92.1472 4.32C91.8272 3.48 91.3472 2.84667 90.7072 2.42C90.0672 1.98 89.3139 1.76 88.4472 1.76C87.9139 1.76 87.4405 1.85333 87.0272 2.04C86.6272 2.21333 86.3139 2.47333 86.0872 2.82C85.8739 3.15333 85.7672 3.55333 85.7672 4.02C85.7672 4.56667 85.9405 5.05333 86.2872 5.48C86.6339 5.90667 87.1605 6.23333 87.8672 6.46L90.3672 7.2C91.5405 7.56 92.4272 8.07333 93.0272 8.74C93.6272 9.40667 93.9272 10.2333 93.9272 11.22C93.9272 12.0333 93.7139 12.7533 93.2872 13.38C92.8739 14.0067 92.2939 14.5 91.5472 14.86C90.8139 15.2067 89.9605 15.38 88.9872 15.38ZM97.2983 15.14L102.638 0.239998H104.958L110.298 15.14H108.198L106.978 11.64H100.618L99.3983 15.14H97.2983ZM101.238 9.84H106.358L103.518 1.66H104.078L101.238 9.84ZM114.176 15.14V0.239998H116.136V13.34H122.676V15.14H114.176ZM131.999 15.38C131.052 15.38 130.186 15.2067 129.399 14.86C128.612 14.5 127.946 14.0133 127.399 13.4C126.852 12.7867 126.459 12.1 126.219 11.34L127.919 10.64C128.279 11.6 128.812 12.34 129.519 12.86C130.239 13.3667 131.079 13.62 132.039 13.62C132.626 13.62 133.139 13.5267 133.579 13.34C134.019 13.1533 134.359 12.8933 134.599 12.56C134.852 12.2133 134.979 11.8133 134.979 11.36C134.979 10.7333 134.799 10.24 134.439 9.88C134.092 9.50667 133.579 9.22667 132.899 9.04L130.159 8.2C129.079 7.86667 128.252 7.34 127.679 6.62C127.106 5.9 126.819 5.07333 126.819 4.14C126.819 3.32667 127.012 2.61333 127.399 2C127.799 1.37333 128.346 0.886665 129.039 0.539999C129.746 0.179999 130.546 -1.19209e-06 131.439 -1.19209e-06C132.332 -1.19209e-06 133.139 0.159999 133.859 0.479999C134.592 0.799998 135.212 1.23333 135.719 1.78C136.226 2.31333 136.599 2.92667 136.839 3.62L135.159 4.32C134.839 3.48 134.359 2.84667 133.719 2.42C133.079 1.98 132.326 1.76 131.459 1.76C130.926 1.76 130.452 1.85333 130.039 2.04C129.639 2.21333 129.326 2.47333 129.099 2.82C128.886 3.15333 128.779 3.55333 128.779 4.02C128.779 4.56667 128.952 5.05333 129.299 5.48C129.646 5.90667 130.172 6.23333 130.879 6.46L133.379 7.2C134.552 7.56 135.439 8.07333 136.039 8.74C136.639 9.40667 136.939 10.2333 136.939 11.22C136.939 12.0333 136.726 12.7533 136.299 13.38C135.886 14.0067 135.306 14.5 134.559 14.86C133.826 15.2067 132.972 15.38 131.999 15.38ZM147.806 10.96V8.56H149.746V10.96H147.806ZM161.07 15.14V0.239998H162.87L168.45 8.18H167.53L173.07 0.239998H174.87V15.14H172.89V2.72L173.59 2.94L168.05 10.74H167.89L162.41 2.94L163.03 2.72V15.14H161.07ZM178.74 15.14L184.08 0.239998H186.4L191.74 15.14H189.64L188.42 11.64H182.06L180.84 15.14H178.74ZM182.68 9.84H187.8L184.96 1.66H185.52L182.68 9.84ZM195.617 15.14V0.239998H200.497C202.004 0.239998 203.317 0.546665 204.437 1.16C205.557 1.77333 206.424 2.64 207.037 3.76C207.651 4.86667 207.957 6.17333 207.957 7.68C207.957 9.17333 207.651 10.48 207.037 11.6C206.424 12.72 205.557 13.5933 204.437 14.22C203.317 14.8333 202.004 15.14 200.497 15.14H195.617ZM197.577 13.34H200.517C201.624 13.34 202.577 13.1067 203.377 12.64C204.191 12.1733 204.817 11.52 205.257 10.68C205.697 9.82667 205.917 8.82667 205.917 7.68C205.917 6.52 205.691 5.52 205.237 4.68C204.797 3.84 204.171 3.19333 203.357 2.74C202.557 2.27333 201.611 2.04 200.517 2.04H197.577V13.34ZM212.441 15.14V0.239998H222.141V2.04H214.401V6.76H221.741V8.56H214.401V13.34H222.141V15.14H212.441ZM237.147 15.38C236.201 15.38 235.334 15.2067 234.547 14.86C233.761 14.5 233.094 14.0133 232.547 13.4C232.001 12.7867 231.607 12.1 231.367 11.34L233.067 10.64C233.427 11.6 233.961 12.34 234.667 12.86C235.387 13.3667 236.227 13.62 237.187 13.62C237.774 13.62 238.287 13.5267 238.727 13.34C239.167 13.1533 239.507 12.8933 239.747 12.56C240.001 12.2133 240.127 11.8133 240.127 11.36C240.127 10.7333 239.947 10.24 239.587 9.88C239.241 9.50667 238.727 9.22667 238.047 9.04L235.307 8.2C234.227 7.86667 233.401 7.34 232.827 6.62C232.254 5.9 231.967 5.07333 231.967 4.14C231.967 3.32667 232.161 2.61333 232.547 2C232.947 1.37333 233.494 0.886665 234.187 0.539999C234.894 0.179999 235.694 -1.19209e-06 236.587 -1.19209e-06C237.481 -1.19209e-06 238.287 0.159999 239.007 0.479999C239.741 0.799998 240.361 1.23333 240.867 1.78C241.374 2.31333 241.747 2.92667 241.987 3.62L240.307 4.32C239.987 3.48 239.507 2.84667 238.867 2.42C238.227 1.98 237.474 1.76 236.607 1.76C236.074 1.76 235.601 1.85333 235.187 2.04C234.787 2.21333 234.474 2.47333 234.247 2.82C234.034 3.15333 233.927 3.55333 233.927 4.02C233.927 4.56667 234.101 5.05333 234.447 5.48C234.794 5.90667 235.321 6.23333 236.027 6.46L238.527 7.2C239.701 7.56 240.587 8.07333 241.187 8.74C241.787 9.40667 242.087 10.2333 242.087 11.22C242.087 12.0333 241.874 12.7533 241.447 13.38C241.034 14.0067 240.454 14.5 239.707 14.86C238.974 15.2067 238.121 15.38 237.147 15.38ZM246.957 15.14V0.239998H248.917V15.14H246.957ZM254.23 15.14V0.239998H256.03L261.61 8.18H260.69L266.23 0.239998H268.03V15.14H266.05V2.72L266.75 2.94L261.21 10.74H261.05L255.57 2.94L256.19 2.72V15.14H254.23ZM273.34 15.14V0.239998H278.6C279.587 0.239998 280.453 0.426665 281.2 0.799999C281.947 1.17333 282.527 1.70667 282.94 2.4C283.367 3.09333 283.58 3.90667 283.58 4.84C283.58 5.77333 283.367 6.58667 282.94 7.28C282.527 7.96 281.947 8.49333 281.2 8.88C280.467 9.25333 279.6 9.44 278.6 9.44H275.3V15.14H273.34ZM275.3 7.64H278.66C279.26 7.64 279.78 7.52667 280.22 7.3C280.66 7.07333 281 6.74667 281.24 6.32C281.48 5.89333 281.6 5.4 281.6 4.84C281.6 4.26667 281.48 3.77333 281.24 3.36C281 2.93333 280.66 2.60667 280.22 2.38C279.78 2.15333 279.26 2.04 278.66 2.04H275.3V7.64ZM288.23 15.14V0.239998H290.19V13.34H296.73V15.14H288.23ZM300.934 15.14V0.239998H310.634V2.04H302.894V6.76H310.234V8.56H302.894V13.34H310.634V15.14H300.934Z" fill="#888888" fill-opacity="0.533333"/>
</svg>
